<?xml version="1.0" encoding="utf-8"?>
<!-- Generator: Adobe Illustrator 24.1.1, SVG Export Plug-In . SVG Version: 6.00 Build 0)  -->
<svg version="1.1" id="Layer_1" xmlns="http://www.w3.org/2000/svg" xmlns:xlink="http://www.w3.org/1999/xlink" x="0px" y="0px"
	 viewBox="0 0 720 720" style="enable-background:new 0 0 720 720;" xml:space="preserve">
<style type="text/css">
	.st0{fill:#010101;}
	.st1{fill:#010101;stroke:#000000;stroke-width:4;stroke-miterlimit:10;}
	.st2{fill:none;stroke:#000000;stroke-width:9;stroke-miterlimit:10;}
</style>
<g id="Shape_19_1_">
	<path class="st0" d="M493.3,633.7c-11.3-27.7-35.7-49.7-64.5-58c-6.8,19.8-25.6,34.8-46.4,37.1c-20.8,2.3-42.5-8.2-53.5-26
		c13.8,10.5,29.7,19.4,47,20.6c17.3,1.2,36.2-7.2,42.9-23.2c4.1-9.8,3.3-20.8,2.5-31.3c-1.1-13.6-2.2-27.2-3.3-40.8
		c22.8-23.1,49.2-42.8,77.8-58.1c-22.9,18.7-45.8,37.5-68.6,56.2c-3,2.5-6.4,6.4-4.5,9.8c4.4,8.2,2,18.2,1.2,27.5
		c-0.8,9.3,1.8,20.8,10.7,23.5c32.9,10.1,59.5,38.2,67.9,71.6c-16,16.1-38.5,24-60.6,29.4c-59,14.6-122.1,15.4-179.7-4
		c2.2-5.4,10.1-4.5,15.7-2.8c68.2,20.3,143.7,15.1,208.5-14.3c3.1-1.4,6.5-3.1,7.9-6.3C496,641.1,494.8,637.1,493.3,633.7z"/>
	<path class="st0" d="M327.6,564.6c0.5,8-0.5,18.3-8.2,20.5c-33,9.7-58,41.7-59.5,76c-4.6-6.9-4.2-16.7,0.8-23.4
		c-3,1.3-5.9,2.7-8.9,4c10.2-32.1,38.8-57.6,71.8-64.1c-1-18.3-2-36.5-2.9-54.8c-0.2-3.6-0.7-7.8-3.8-9.6
		c-23.6-14.2-47.2-28.5-70.7-42.7c-5.8-3.5-12-7.4-14.6-13.6c-2.6-6.2,0.5-15.3,7.3-15.9c-1.9,4.5-4.2,8.8-6.7,13
		c27.6,17.2,55.2,34.4,82.8,51.6c11.8,7.3,24.5,14.9,38.3,14.3c2.3-3.1,4.6-6.2,6.8-9.4c1.9,2.7,2.7,6.2,2.2,9.5
		c14.7-0.3,29.3-0.7,44-1c-25.9,10.1-55.5,10.3-81.5,0.4C325.8,534.5,326.7,549.5,327.6,564.6z"/>
	<path class="st0" d="M200.5,294.4c-4.2-39.1-8.3-78.3-12.5-117.4c-0.7-7-3.4-15.9-10.5-16.2c-4.9-0.2-9.4-4.3-10-9.2
		c-0.6-4.9,2.8-10,7.5-11.3c-3.3-5.9-1.9-14.1,3.2-18.5c5.1-4.4,13.4-4.6,18.8-0.5c-6.3-1.3-13.3,2-16.4,7.6
		c-3.1,5.6-2.1,13.2,2.3,17.9c-3.8,0.2-7.5,1.4-10.7,3.4c17,8.4,21.4,30.2,23.7,49.1c10.1,81.6,20.3,163.1,30.4,244.7
		c-6.2-13.2-10.6-27.3-12.9-41.8c-20.4,8.5-45.6-0.4-58.8-18.2s-14.9-42.4-7.6-63.3c3.9-11,10.5-21.6,20.5-27.6
		C177.6,287.2,191.5,286.8,200.5,294.4 M199.2,303.2c-5.7-9.2-19.5-10.8-29-5.5c-9.5,5.3-15.2,15.5-18.5,25.8
		c-7,22.1-3.8,48.3,12.1,65c3.5,3.7,7.7,7,12.6,8.6c3.6,1.1,7.4,1.3,11.2,1.5c6.8,0.3,13.6,0.6,20.4,0.9c4.8,0.2,5.9-6.6,5.2-11.4
		c-3.4-23.7-6.7-47.5-10.1-71.2C202.5,312.1,201.7,307.3,199.2,303.2z"/>
	<path class="st0" d="M501.1,220.4c-0.3-3.8-2.3-7.3-3.1-11.1c-0.7-3.8,0.3-8.5,4-9.8c1.6,26,3.1,52.1,4.7,78.1
		c10.9-13.2,33.4-12,45.8-0.2c12.4,11.8,15.6,31,12,47.7c-1.8-16-4.2-33.3-15.5-44.8c-11.3-11.5-34.6-11.7-40.6,3.2
		c-1.5,3.9-1.7,8.1-1.9,12.3c-1.8,48.5-3.7,97-5.5,145.5c-4.3,0.1-5.6-5.8-5.5-10.2c2.6-59.6,4.3-119.3,5.3-179
		c0.1-6.8-3.9-16.5-10-13.5c-5.2,2.5-12.1,1-15.8-3.4c-3.7-4.4-3.9-11.4-0.5-16.1c-1.4,7.5,4.8,15.5,12.5,15.9
		C494.7,235.3,501.7,228,501.1,220.4z"/>
	<path class="st0" d="M471.6,214.2c-7.6,7.6-18.7,10.9-29.4,11.2c-10.7,0.3-21.4-2.1-31.9-4.5c-12.5-2.8-24.9-5.6-37.4-8.5
		c2.1,2.4,1.6,6.7-1,8.6c-2.1-2.6-4.3-5.4-4.4-8.8c-0.1-3.3,3-6.9,6.2-5.8c15.9,5.3,31.9,10.7,48.6,12.7c16.7,2,34.2,0.2,48.9-7.9
		c-0.5-7.7-14-12.3-10.4-19.1c2.2-4.3,8.5-3.1,13.3-2c12.9,3,27.2-0.5,37.3-9s15.9-22,15.2-35.3c5.7,14.1-0.2,31.3-12.1,40.7
		c-11.9,9.4-28.6,11.5-43.3,7.5c-2.8-0.8-6.9-1.1-7.6,1.7c3.3,2.1,6.6,4.4,8.6,7.7C474.1,206.7,474.4,211.4,471.6,214.2z"/>
	<path class="st0" d="M235.6,208.7c7.2,4.9,15,9.1,23.5,10.6c8.5,1.5,17.9,0.1,24.6-5.4c-3.2-3.4-2.4-9.6,1.5-12.2
		c24.3,16.8,55.2,23.9,84.4,19.4c-13,9.7-31.3,6.8-47,2.5c-12.5-3.4-25.3-7.6-35-16.2c-0.4,10-10.5,17.5-20.5,18.1
		s-19.5-4.1-27.9-9.7c-2.1,5.4-0.9,11.3-0.6,17.1s-0.7,12.3-5.5,15.5c-4,2.6-9.1,2-13.8,2.7c-4.7,0.7-9.9,4.5-8.7,9.1
		c0.5,1.9-1,4.1-3,4.4c-0.6-5.6-1.1-11.3-1.7-16.9c6.3-0.8,12.6-1.5,18.9-2.3c4.5-0.6,10.6-3.1,9.3-7.5
		C231.6,228.3,232.1,217.9,235.6,208.7z"/>
	<path class="st0" d="M506.4,65.3c-13.6,5-27.1,10-40.7,15c-2.4,0.9-4.9,1.8-7.4,1.2s-4.6-3.4-3.5-5.7c6-12.8,6.4-28.2,1.1-41.3
		c-0.4-1.1-0.9-2.2-1.8-3c-2.8-2.9-7.6-1.3-11.2,0.5c-8.1,4.2-15.9,9.2-24.8,11.1c-5.4,1.2-10.9,1.1-16.3,2.3
		c-15.2,3.3-27.4,16.1-42.9,17.5c-0.4-5.4,5.7-8.5,10.8-10.2c24.9-8.4,49.7-16.8,74.6-25.2c3.1-1,6.4-2.1,9.5-1.2
		c4.7,1.4,7.1,6.6,8.3,11.3c3.5,13.6,2.3,28.4-3.5,41.2c11.9-4.6,23.9-9.3,35.8-13.9C498.4,63.3,503.6,62,506.4,65.3z"/>
	<path class="st0" d="M376.9,390.5c-3.6,7.8-14.7,8.6-22.7,5.6c-4.1-1.5-8.2-4-9.7-8.1c-0.9-2.6-0.6-5.5-0.2-8.3
		c1.7-12.8,4.2-25.6,7.5-38.1c5.7-0.3,12.1-0.4,16.4,3.4c3.5,3,4.8,7.7,5.8,12.2c1.6,7.2,2.8,14.4,3.8,21.6
		C378.2,382.8,378.5,386.9,376.9,390.5 M354.4,391.2c5.3-0.1,10.7-0.1,16-0.2c0.8,0,1.8,0,2.4-0.5c1.2-0.9,1.1-2.7,0.9-4.2
		c-1.5-9.3-3-18.6-4.5-27.9c-0.5-3.4-1.2-7-3.3-9.7s-6.5-4-9.2-1.8c-1.9,1.6-2.4,4.2-2.8,6.7c-1.6,11-3.2,21.9-4.8,32.9
		c-0.1,0.9-0.3,1.9,0.1,2.8C350.1,391,352.5,391.2,354.4,391.2z"/>
	<path class="st0" d="M244.9,285.8c-2.2,1.3-6.3,1.9-6.3-0.7c0-0.8,0.6-1.5,1.1-2.1c19.3-22.2,48.6-35.4,78-35.2
		c4.5,0,8.3,3.8,9.6,8.1c1.4,4.3,0.8,8.9-0.1,13.3c-0.4,1.8-0.8,3.7-2.3,4.9c-1.3,1.1-3.2,1.2-4.9,1.3
		C294.5,276.6,266.8,272.5,244.9,285.8 M251.5,277.9c0.9,1.1,2.7,0.8,4.1,0.3c18.7-5.8,38.4-8.1,57.9-6.6c3.9,0.3,7.8-2.1,9.5-5.6
		c1.7-3.5,1.1-8-1.4-11.1c-0.9-1.2-2.2-2.2-3.6-2.6c-1.1-0.3-2.2-0.3-3.3-0.3c-21.9,0.3-43.7,7.8-61.2,21.1
		C251.9,274.2,250.3,276.4,251.5,277.9z"/>
	<path class="st0" d="M231.6,90.3c7.5-6.4,15.2-12.7,23.9-17.5c5.8-3.2,12-5.6,18.1-8.1c19.6-7.8,39.1-15.6,58.7-23.4
		c-20.8,19.1-52.2,20.8-76.1,35.8c-5.8,3.7-11.1,8.1-16.4,12.5c-4.3,3.6-8.6,7.2-13,10.8C225.1,96.8,228.5,92.9,231.6,90.3z"/>
	<path class="st0" d="M287.7,309.7c-2.8,0.1-5.9,0.4-7.6,2.6c-1.7,2.2,0.7,6.4,3.1,5.1c0.1-2.4,3.7-3.1,5.5-1.5
		c1.8,1.6,2,4.3,2.1,6.7c0.2,3.1,0.4,6.1,0.5,9.2c0.3,5.1,0.5,10.5-2.1,14.8c-2.6,4.3-9.3,6.6-12.9,3c-1.7-1.7-2.3-4.2-2.8-6.6
		c-1.4-8.1-1.4-16.4-0.1-24.5c0.6-3.7,1.6-7.7,4.5-10.1C281,306,286.2,306.2,287.7,309.7 M283.5,327.8c-0.2-1.3-0.4-2.5-0.7-3.8
		c-2.7,0.5-5.1,2.8-5.1,5.5c0,2.7,3.2,5.1,5.6,3.9c0-1.9-0.1-3.7-0.1-5.6L283.5,327.8z"/>
	<path class="st0" d="M527.4,138.2c-5.7,4.9-14.9,5.3-21,0.9c14.6-15.7,18.3-40.6,8.9-59.9c-1.8-3.7-4.1-7.7-3.2-11.7
		c11.7,11.4,14.9,29.4,12.1,45.5c-1.5,8.5-4.5,17-9.9,23.8C518.6,137.2,523,137.7,527.4,138.2z"/>
	<path class="st0" d="M437,340.1c1.3-9,0.4-18.4-2.8-27c-3.4,4.3-6.7,9.1-7.1,14.6c-0.6,7.6,4.6,14.5,10.2,19.7
		c-5.3,2.6-11.7-1.5-14.3-6.8c-4-8.2-1.6-18,1-26.8c0.5-1.7,1.1-3.5,2.4-4.8c2.3-2.3,6.4-2.1,9.1-0.2c2.7,1.9,4.2,5.1,5.1,8.3
		c2,6.9,1.9,14.4-0.4,21.1C439.8,339.6,438,341.3,437,340.1z"/>
	<path class="st0" d="M565,324.4c4.6,10.7-2,22.7-8.3,32.5c-3.4,5.3-6.9,10.7-11.6,15c-7.1,6.4-16.3,9.8-25.4,13
		c-2.3,0.8-5,1.6-7.1,0.4c-2.1-1.2-1.9-5.4,0.5-5.4c13.7,0,26.5-7.8,35.2-18.4C556.9,350.8,561.7,337.6,565,324.4z"/>
	<path class="st0" d="M400.7,263.6c-0.7,1.4-3.1,1.3-3.8-0.1c-1.2-3.9-2.4-7.9-1.8-11.9s3.5-8,7.5-8.4c11.3-1.1,22.9-2.2,34,0
		c11.2,2.2,22.1,8.4,27.4,18.4c-4.9-0.9-8.3-4.9-12.3-7.9c-13-9.8-31.1-7.5-47.1-4.8c-2.8,0.5-4.8,3.3-5.2,6.2
		C399.2,258,400,260.8,400.7,263.6z"/>
	<path class="st0" d="M473,267.9c2.4,0.5,5.5,2.3,4.6,4.6c-3.9,1.3-8.2-0.1-12.1-1.3c-20.1-6.2-41.9-6.7-62.3-1.5
		c-1.7-2.1,1.6-4.6,4.2-5.2c16.6-3.7,33.9-2.2,50.7,0.6C463.1,265.9,468.1,266.8,473,267.9z"/>
	<path class="st0" d="M517.7,326.6c3.7-11.6,9.7-22.4,17.5-31.8c3.6,2.4,0.7,7.8-2,11.2c-3.5,4.4-6.3,9.4-8.3,14.7
		c-1.4,3.9-1.5,9.7,2.5,10.9c4.5,1.3,8.1,5.1,9.1,9.7c1,4.6-0.7,9.6-4.3,12.6c1-4.5,1.3-9.3-0.6-13.5c-1.9-4.2-6.5-7.4-11-6.4
		C517.5,334.8,516.7,329.7,517.7,326.6z"/>
	<path class="st0" d="M341.6,38.4c3.7-2.1,8.6,0.3,10.8,4c2.2,3.7,2.3,8.1,2.4,12.4c0,2.2-1.2,5.4-3.2,4.5
		C352,51.2,348.1,43.1,341.6,38.4z"/>
	<path class="st0" d="M493.2,396.6c1.5,1,0.7,3.9-1.2,3.9c-1.4-1.7-2.2-3.9-2.1-6C490.6,392.9,492.7,394.9,493.2,396.6L493.2,396.6z
		"/>
	<path class="st0" d="M485.5,426.4c0.8-0.5,1.7-1.1,2.5-1.6c0.1,1.8,0.8,3.6,1.9,5.1c-1.8,1-4.3-0.8-4-2.8L485.5,426.4z"/>
	<path class="st0" d="M233.1,429.8c0.6-1.6,3.3-1.6,4,0c-1.1,1.1-2.3,2.3-3.4,3.4C233,432.2,232.8,430.9,233.1,429.8L233.1,429.8z"
		/>
	<path class="st0" d="M219.6,101c-1.3,0.8-2.9-0.4-3.5-1.8c-0.6-1.4-0.6-3-1.4-4.2c-2-3.2-7.4-1.7-9.2,1.6c-1.9,3.3-1.5,7.3-1.7,11
		s-1.4,8-4.9,9.5c-1.4-6.8-0.9-14.1,1.6-20.6c1.5-4,4.3-8.2,8.6-8.8C215.4,86.9,219.4,94.6,219.6,101z"/>
	<path class="st0" d="M191.6,361.4c-3.7,0.5-6.9,3.7-7.4,7.4c-0.5,3.7,1.6,7.6,5,9.2c1.9,0.9,1.2,4.2-0.8,4.9
		c-2,0.7-4.2-0.4-5.8-1.8c-3.9-3.6-5.4-9.7-3.7-14.7c1.7-5.1,6.6-8.9,11.9-9.4c3-0.3,5.2-3.4,5.4-6.5c0.2-3-1-6-2.2-8.8
		c-2.8-6.5-5.5-13-8.3-19.5c-1.7-4-5-8.9-9.2-7.6c-2.1,0.6-3.4,2.6-4.9,4.2c-1.5,1.5-4.1,2.7-5.8,1.4c1.2-7.6,11.9-10.2,18.6-6.4
		s10.1,11.5,13,18.6c2.2,5.3,4.4,10.8,4,16.6S197.3,360.6,191.6,361.4z"/>
</g>
<ellipse class="st0" cx="285.7" cy="328.3" rx="7.6" ry="19.9"/>
<ellipse class="st0" cx="433.9" cy="329.9" rx="8.2" ry="18.2"/>
<line class="st1" x1="240.8" y1="424.8" x2="225.5" y2="436.9"/>
<line class="st1" x1="242.5" y1="437.2" x2="231.6" y2="453.4"/>
<line class="st1" x1="255.1" y1="447.8" x2="239.7" y2="460"/>
<line class="st1" x1="497.1" y1="437.1" x2="482.7" y2="423.8"/>
<line class="st1" x1="499.7" y1="403.1" x2="484.1" y2="391.3"/>
<line class="st1" x1="361" y1="502.4" x2="360.9" y2="521.9"/>
<line class="st1" x1="371.7" y1="505.8" x2="372.2" y2="525.3"/>
<line class="st1" x1="381.9" y1="505.8" x2="382.9" y2="525.3"/>
<line class="st1" x1="497.9" y1="419.2" x2="481.9" y2="407.8"/>
<rect x="24.7" y="10.9" class="st2" width="674.8" height="689.4"/>
</svg>
